<svg xmlns="http://www.w3.org/2000/svg" width="40" height="40" viewBox="0 0 40 40">
    <g fill="none" fill-rule="evenodd">
        <path fill="#292828" d="M0 0H40V40H0z"/>
        <g fill="#FFF" fill-rule="nonzero">
            <path d="M8.173 13.722c-.137.137-.137.36 0 .497.138.138.36.138.497 0 .138-.137.138-.36 0-.497-.137-.137-.36-.137-.497 0z" transform="translate(11 11)"/>
            <path d="M17.189 13.112l-2.67-2.27c-.012-.01-.025-.02-.039-.029-.7-.445-1.599-.347-2.186.24l-1.455 1.455c-.101.101-.251.131-.383.077-1.644-.68-2.994-1.703-4.013-3.042-.777-1.02-1.057-1.831-1.094-1.945-.004-.025-.011-.049-.021-.073-.055-.132-.025-.282.076-.383L6.86 5.687C7.446 5.1 7.545 4.2 7.1 3.5l-.01-.017L5.16.805c-.607-.94-1.928-1.083-2.72-.29l-.292.291v.001l-1.041 1.04C-.132 3.088-.336 4.953.52 7.24c.734 1.96 2.203 4.103 4.137 6.037 1.98 1.98 4.181 3.476 6.2 4.213 1.997.73 4.123.82 5.627-.684l.98-.981c.79-.79.652-2.102-.276-2.712zm-3.105-1.718l2.667 2.268.038.029c.57.363.656 1.16.18 1.636l-.073.073-4.549-3.406.444-.444c.347-.346.875-.41 1.293-.156zM4.574 1.192l.01.016 1.927 2.678c.262.419.201.954-.149 1.304l-.43.43-3.077-4.525.082-.083c.48-.478 1.275-.388 1.636.18zm6.525 15.637c-1.925-.703-4.035-2.142-5.944-4.05-1.864-1.864-3.276-3.92-3.976-5.786-.525-1.402-.877-3.345.426-4.648l.744-.744 3.077 4.525-.519.52c-.295.294-.388.73-.24 1.118.11.456.621 1.401 1.136 2.098.758 1.025 2.134 2.442 4.384 3.373.395.163.846.073 1.149-.23l.51-.509 4.548 3.406-.406.406c-1.397 1.397-3.43 1.054-4.89.52z" transform="translate(11 11)"/>
            <path d="M7.514 12.883c-.372-.326-1.014-.886-1.352-1.234-.83-.852-1.7-1.885-2.217-2.632-.111-.16-.33-.2-.49-.089-.16.111-.199.33-.088.49.652.941 1.611 2.023 2.29 2.721.358.368 1.006.933 1.393 1.273.146.127.368.113.496-.033.128-.146.114-.368-.032-.496z" transform="translate(11 11)"/>
        </g>
    </g>
</svg>
