<svg xmlns="http://www.w3.org/2000/svg" width="16" height="16" viewBox="0 0 16 16">
    <g fill="none">
        <path fill="#FFF" d="M12 1.337c0-.184-.142-.333-.318-.333H10.09C8.423.917 7 2.257 6.909 4.003v1.8H5.32c-.177 0-.319.149-.319.333v1.732c0 .184.142.334.318.334H6.91v4.465c0 .184.143.333.318.333h1.91c.175 0 .318-.15.318-.333V8.202h1.667c.145.002.274-.1.312-.247l.458-1.733c.025-.1.005-.206-.054-.288-.06-.083-.153-.131-.252-.132H9.455V4.003c.032-.342.308-.602.636-.6h1.59c.177 0 .319-.149.319-.333V1.337z"/>
    </g>
</svg>
