<svg xmlns="http://www.w3.org/2000/svg" width="14" height="14" viewBox="0 0 14 14">
    <path fill="#FFF" fill-rule="evenodd" d="M7.003 3.855c-1.74 0-3.142 1.403-3.142 3.142 0 1.74 1.403 3.142 3.142 3.142 1.739 0 3.142-1.403 3.142-3.142 0-1.739-1.403-3.142-3.142-3.142zm0 5.185c-1.124 0-2.043-.916-2.043-2.043 0-1.126.916-2.042 2.043-2.042 1.126 0 2.042.916 2.042 2.042 0 1.127-.918 2.043-2.042 2.043zm4.003-5.313c0 .407-.328.733-.733.733-.407 0-.733-.328-.733-.733 0-.405.328-.733.733-.733.405 0 .733.328.733.733zm2.08.744c-.046-.982-.27-1.851-.99-2.568-.716-.716-1.585-.94-2.567-.99-1.011-.057-4.044-.057-5.056 0-.978.047-1.848.271-2.567.987-.72.717-.94 1.586-.99 2.568-.057 1.012-.057 4.044 0 5.056.046.981.27 1.851.99 2.567.719.717 1.586.941 2.567.99 1.012.058 4.045.058 5.056 0 .982-.046 1.851-.27 2.568-.99.716-.716.94-1.586.99-2.567.057-1.012.057-4.042 0-5.053zm-1.306 6.138c-.214.536-.626.95-1.165 1.165-.807.32-2.72.246-3.612.246-.892 0-2.808.071-3.612-.246-.536-.213-.95-.626-1.165-1.165-.32-.806-.246-2.72-.246-3.612 0-.891-.071-2.808.246-3.612.213-.536.626-.949 1.165-1.165.806-.32 2.72-.246 3.612-.246.891 0 2.808-.07 3.612.246.536.214.949.626 1.165 1.165.32.807.246 2.72.246 3.612 0 .892.074 2.808-.246 3.612z"/>
</svg>
