<svg xmlns="http://www.w3.org/2000/svg" width="134" height="49" viewBox="0 0 134 49">
    <g fill="#FFF" fill-rule="evenodd">
        <path d="M50.022 0L42.779 7.289 35.537 0 28.481 7.093 21.426 0 0 21.569 3.985 21.569 3.985 46.089 3.957 46.089 3.957 48.388 133.072 48.388 133.072 46.089 6.27 46.089 6.27 19.589 21.426 4.337 26.326 9.269 14.104 21.569 18.074 21.569 18.074 44.327 19.927 44.327 19.927 44.356 133.072 44.327 133.072 42.05 20.359 42.05 20.359 19.611 35.537 4.337 40.617 9.457 28.589 21.569 32.654 21.569 32.654 40.178 34.182 40.178 34.182 40.2 133.072 40.178 133.072 37.901 34.938 37.901 34.938 19.516 50.022 4.337 67.138 21.569 71.455 21.569z"/>
        <path d="M94.526 31.509L100.153 31.509 100.153 29.258 94.526 29.258z"/>
        <g>
            <path d="M7.261 6.68c-.043.365-.107.555-.258.708-.222.211-.459.263-1.298.263H2.95c-.839 0-1.083-.052-1.29-.263-.209-.219-.259-.496-.259-1.313V3.094c0-.817.05-1.094.258-1.313.208-.211.452-.262 1.291-.262h2.755c.84 0 1.076.05 1.298.262.15.153.215.335.258.707l1.378-.182C8.445.782 7.735.199 6.056.199h-3.45c-.96 0-1.528.19-1.98.634-.437.43-.61.999-.61 1.998v3.507c0 .999.173 1.568.61 1.998.452.445 1.02.634 1.98.634h3.45c1.679 0 2.389-.583 2.583-2.107L7.26 6.681zM18.638 1.52V.199h-7.503V8.97h7.847V7.65H12.52V5.245h5.947l.172-1.312h-6.119V1.519h6.119zm2.51-1.32V8.97h1.377V6.338h4.656c.961 0 1.528-.182 1.98-.627.437-.438.61-.999.61-1.998v-.882c0-1-.173-1.568-.61-1.998C28.709.388 28.142.2 27.18.2h-6.033zm1.377 4.826V1.52h4.311c.825 0 1.048.036 1.291.262.18.168.259.394.259.788v1.407c0 .394-.08.612-.259.787-.243.219-.466.262-1.29.262h-4.312zM39.841 2.57c0-1.62-.803-2.37-2.56-2.37h-5.61V8.97h6.04c1.757 0 2.568-.751 2.568-2.37v-.167c0-.817-.209-1.393-.617-1.75-.13-.102-.273-.175-.574-.263.56-.328.753-.765.753-1.67V2.57zM33.056 7.65V5.244h4.303c.825 0 1.047.059 1.291.263.18.175.258.4.258.78v.328c0 .38-.078.605-.258.773-.244.211-.466.263-1.29.263h-4.304zm0-3.72V1.52h3.873c.832 0 1.047.05 1.298.262.18.168.258.394.258.788v.313c0 .394-.079.62-.258.787-.251.212-.466.263-1.298.263h-3.873zm9.554 5.04h1.384V.198H42.61V8.97zm11.118-2.29c-.036.364-.1.554-.258.707-.223.211-.452.263-1.292.263h-2.754c-.839 0-1.09-.052-1.298-.263-.201-.219-.258-.496-.258-1.313V3.094c0-.817.057-1.094.258-1.313.208-.211.459-.262 1.298-.262h2.754c.84 0 1.07.05 1.292.262.157.153.222.335.258.707l1.384-.182C54.92.782 54.208.199 52.522.199h-3.45c-.953 0-1.527.19-1.979.634-.438.43-.603.999-.603 1.998v3.507c0 .999.165 1.568.603 1.998.452.445 1.026.634 1.98.634h3.45c1.685 0 2.396-.583 2.59-2.107l-1.385-.182zM92.993 1.613v5.753h-5.868c-.136-.919.008-3.128.008-4.178 0-.81.05-1.086.258-1.312.208-.212.452-.263 1.29-.263h4.312zm1.37 5.79V.337h-6.04c-.954 0-1.52.183-1.972.628-.445.437-.61.998-.61 1.997 0 1.422-.086 3.04-.021 4.44h-1.04v1.466h10.895V7.403h-1.212zM81.796.024h1.384v6.139c0 .999-.165 1.568-.61 1.998-.452.444-1.018.634-1.972.634h-3.457c-.954 0-1.521-.19-1.98-.634-.373-.372-.552-.846-.596-1.619h1.392c.036.35.1.525.244.67.208.212.452.263 1.291.263h2.754c.84 0 1.083-.05 1.291-.262.209-.219.259-.496.259-1.312v-.839c-.323.11-.71.153-1.198.153h-3.457c-.954 0-1.521-.182-1.98-.627-.438-.437-.603-.999-.603-1.998V.024h1.385v2.304c0 .81.05 1.086.258 1.312.208.212.452.263 1.291.263h2.754c.84 0 1.083-.051 1.291-.263.209-.226.259-.503.259-1.312V.024zM72.973 6.528c0 1.618-.81 2.362-2.568 2.362h-6.04V.126h7.381v1.327c-.136-.007-1.93-.015-2.115-.015H65.75V3.86h3.88c1.916 0 3.343-.11 3.343 2.493v.176zm-7.28-1.335h4.303c.832 0 1.048.051 1.291.263.187.167.259.393.259.773v.328c0 .386-.072.605-.259.78-.243.211-.459.262-1.29.262h-4.304V5.193z" transform="translate(38.26 24.757)"/>
        </g>
    </g>
</svg>
