<svg xmlns="http://www.w3.org/2000/svg" width="16" height="17" viewBox="0 0 16 17">
    <path fill="#FFF" d="M15.916 9.605v4.914c0 .307-.065.587-.197.844-.13.259-.31.485-.536.679-.226.195-.486.346-.782.458-.298.112-.618.168-.963.168H3.328c-.336 0-.653-.056-.95-.168-.297-.112-.558-.263-.783-.458-.224-.194-.405-.42-.537-.68-.13-.256-.196-.536-.196-.843V9.605c0-.291.065-.57.197-.833.131-.265.313-.494.537-.683.224-.19.486-.344.783-.46.297-.114.614-.172.95-.172h10.11c.337 0 .655.058.957.173.3.115.562.27.788.459.227.19.404.419.536.683.132.264.196.542.196.833zm-11.91 5.462V9.884h1.24v-.783H1.9v.761h1.073v5.205h1.034zM4.512 3.01L3.126 0h1.206l.69 2.25L5.71 0h1.205L5.616 3.01v3.506H4.512V3.01zm3.258 7.636H6.734v2.766c0 .2.002.356.01.463.007.11-.008.178-.045.207-.031.12-.119.207-.267.264-.143.054-.254-.023-.332-.241-.016-.03-.017-.103-.01-.218.008-.116.01-.267.01-.454l-.02-2.787H5.042l.024 2.743c0 .216-.006.396-.013.542-.007.145-.005.255.013.33l.043.387c.014.137.086.248.215.33.12.074.26.113.42.113.164 0 .323-.027.475-.08.156-.053.296-.125.428-.217.13-.092.228-.193.286-.297l-.02.547.856.022v-4.42zM6.822 3.47c0-.411.04-.752.113-1.018.093-.277.237-.475.441-.595.204-.15.462-.224.778-.224.277 0 .508.046.698.134.187.075.342.205.462.392.09.136.159.287.203.46.043.186.067.436.067.75v1.174c0 .427-.024.732-.067.92-.017.17-.09.362-.227.571-.134.185-.28.309-.438.37-.19.09-.401.132-.643.132-.245 0-.474-.037-.675-.112-.19-.059-.329-.168-.417-.323-.09-.122-.166-.288-.227-.505-.044-.203-.068-.506-.068-.918V3.471zm.925 1.824c0 .12.045.226.136.32.089.091.199.138.325.138.12 0 .228-.044.322-.134.094-.088.14-.198.14-.324v-2.43c0-.134-.046-.246-.14-.34-.094-.093-.203-.14-.321-.14-.12 0-.228.047-.32.14-.094.094-.142.206-.142.34v2.43zm3.369 8.508v-2.296c0-.44-.157-.754-.472-.94-.104-.058-.227-.09-.361-.09-.25 0-.534.116-.856.348V9.1H8.39v5.922L9.247 15l.067-.37c.278.233.53.374.75.426.222.052.408.031.563-.062.154-.092.274-.245.36-.46.085-.211.129-.458.129-.732zm-1.25-2.754c.12 0 .226.035.32.107.094.07.141.15.141.24v2.597c0 .09-.047.166-.14.234-.095.067-.201.102-.32.102-.122 0-.228-.035-.324-.102-.092-.067-.138-.145-.138-.234v-2.598c0-.089.047-.168.138-.24.096-.07.202-.106.324-.106zm.483-4.992c-.026-.06-.048-.124-.055-.185-.009-.063-.018-.126-.035-.185-.015-.075-.022-.176-.022-.304V1.815h.97v3.559c0 .09.032.166.1.235.07.067.158.101.27.101.107 0 .196-.034.271-.1.076-.069.116-.146.116-.236v-3.56h.898v4.568h-1.146l.02-.37c-.106.15-.205.266-.304.347-.12.074-.25.112-.395.112-.171 0-.315-.038-.428-.112-.099-.066-.185-.168-.26-.302zm4.034 7.456h-.776v.502c0 .12-.043.212-.13.28-.086.067-.189.1-.308.1h-.161c-.12 0-.217-.033-.297-.1-.079-.068-.12-.16-.12-.28v-1.064h1.792v-.615c0-.23-.003-.453-.011-.665-.008-.214-.025-.38-.056-.497-.03-.204-.12-.366-.277-.489-.153-.122-.332-.206-.54-.25-.206-.047-.416-.054-.631-.023-.214.03-.398.1-.559.211-.2.135-.346.318-.438.55-.09.23-.135.552-.135.963v1.378c0 .58.156.996.463 1.241.285.23.584.347.9.347h.092c.354-.02.665-.17.936-.447.203-.202.304-.467.304-.794-.011-.106-.024-.223-.048-.348zm-.8-1.312h-.991l.022-.547c0-.12.046-.217.135-.298.091-.078.199-.118.328-.118h.046c.133 0 .248.038.343.112.092.075.141.176.141.304l-.024.547z"/>
</svg>
